<svg xmlns="http://www.w3.org/2000/svg" viewBox="0 0 180 60" fill="none">
  <!-- G mark -->
  <circle cx="24" cy="30" r="20" fill="#E40046"/>
  <path d="M24 14 C15.2 14 8 21.2 8 30 C8 38.8 15.2 46 24 46 C30 46 35.2 42.8 38 38 L30 38 C28.4 40 26.4 41 24 41 C18 41 13 36 13 30 C13 24 18 19 24 19 C27.6 19 30.8 20.8 32.8 23.6 L38 23.6 C35.6 17.8 30.2 14 24 14Z" fill="white"/>
  <rect x="26" y="28" width="12" height="5" fill="white"/>
  <text x="52" y="38" font-family="Arial, sans-serif" font-size="22" font-weight="700" fill="#E40046">Galicia</text>
</svg>