<?xml version="1.0" encoding="UTF-8"?> <svg xmlns="http://www.w3.org/2000/svg" width="150" height="47" viewBox="0 0 150 47" fill="none"><path d="M28.9383 14.0039H27.205C26.6432 14.0039 26.1876 14.468 26.1876 15.0361V21.2636H20.5048V15.0361C20.5048 14.468 20.0458 14.0039 19.4806 14.0039H17.7439C17.1821 14.0039 16.7266 14.468 16.7266 15.0361V31.1314C16.7266 31.7029 17.1821 32.1705 17.7439 32.1705H19.4806C20.0355 32.1705 20.5048 31.6959 20.5048 31.1314V24.6718H26.1876V31.1314C26.1876 31.7029 26.6432 32.1705 27.205 32.1705H28.9383C29.5 32.1705 29.9556 31.7063 29.9556 31.1314V15.0361C29.9556 14.468 29.5 14.0039 28.9383 14.0039Z" fill="black"></path><path d="M49.3847 30.8023L44.1027 14.6966C43.9588 14.281 43.5683 14.0039 43.1367 14.0039H41.4617C41.0232 14.0039 40.643 14.2775 40.4923 14.7001L35.0595 30.7746C34.9396 31.0933 34.9876 31.457 35.1965 31.7548C35.3952 32.0146 35.7035 32.1705 36.0152 32.1705H37.7314C38.1801 32.1705 38.574 31.8795 38.7076 31.4431L40.1874 26.6807H44.0581L45.5311 31.4431C45.6681 31.8795 46.0586 32.1705 46.5073 32.1705H48.4187C48.751 32.1705 49.0661 32.0042 49.2648 31.7202C49.4429 31.4396 49.4875 31.0967 49.3847 30.8058M43.4929 23.3729H41.054C40.9787 23.3729 40.9239 23.3002 40.9478 23.2275L42.1913 19.3794C42.2255 19.2755 42.3694 19.2755 42.4002 19.3794L43.5991 23.2275C43.6231 23.3002 43.5683 23.3729 43.4929 23.3729Z" fill="black"></path><path d="M66.5119 14.0039H64.7958C64.2306 14.0039 63.7716 14.468 63.7716 15.0361V24.8727C63.7716 27.3214 63.2783 27.983 63.0625 28.1562C62.5281 28.5926 61.6581 28.8177 60.4763 28.8177C59.411 28.8177 58.5957 28.5926 58.0511 28.1527C57.8387 27.983 57.342 27.318 57.342 24.8276V15.0395C57.342 14.4715 56.883 14.0074 56.3212 14.0074H54.5948C54.0296 14.0074 53.5706 14.4715 53.5706 15.0395V24.793C53.5706 27.7301 54.1427 29.6975 55.3142 30.8093C56.4548 31.883 58.1573 32.4268 60.3735 32.4268C62.5898 32.4268 64.3745 31.9038 65.6008 30.8751C66.9024 29.7771 67.5361 27.7786 67.5361 24.7653V15.0395C67.5361 14.4715 67.0771 14.0074 66.5154 14.0074" fill="black"></path><path d="M84.1803 23.5052C83.5055 22.6774 82.3409 21.9605 80.6247 21.3162L79.0901 20.6616C78.4427 20.4122 77.7953 20.0659 77.1684 19.6329C76.7505 19.342 76.5724 18.9956 76.5724 18.4796C76.5724 18.1159 76.7197 17.8561 77.0691 17.6067C77.5076 17.2915 78.0899 17.1288 78.8024 17.1288C79.5149 17.1288 80.0527 17.25 80.4808 17.4924C80.9707 17.7695 81.4194 18.0951 81.8168 18.4484C82.0223 18.6562 82.2758 18.7047 82.5395 18.7359H82.5635H82.5841C82.865 18.7151 83.1082 18.5939 83.2897 18.386L84.2968 17.2257C84.6428 16.8309 84.6256 16.2109 84.2557 15.8126C83.5672 15.1095 82.7862 14.5588 81.9332 14.1639C81.07 13.7795 80.0081 13.582 78.7716 13.582C77.1273 13.582 75.7195 14.0219 74.5925 14.8843C73.3833 15.8126 72.7702 17.0803 72.7702 18.6562C72.7702 20.2321 73.3011 21.4375 74.3459 22.3726C75.257 23.197 76.3874 23.8551 77.6994 24.3226L78.6174 24.7106C79.6416 25.0916 80.4158 25.476 80.9125 25.8605C81.2207 26.0925 81.3646 26.4735 81.3646 27.052C81.3646 27.6719 81.2036 28.0633 80.8302 28.3612C80.3918 28.7075 79.7615 28.8842 78.9565 28.8842C78.2372 28.8842 77.6001 28.7249 77.0657 28.4097C76.4423 28.0391 75.9319 27.6269 75.5482 27.1905C75.3701 26.9861 75.12 26.8615 74.8426 26.8441C74.5617 26.8234 74.2842 26.9203 74.0821 27.1074L72.7702 28.3473C72.5647 28.5344 72.4413 28.808 72.4413 29.0712C72.4311 29.3518 72.5304 29.6254 72.712 29.8124C73.1162 30.2558 73.5512 30.6472 74.0033 30.9797C74.4315 31.3052 74.9248 31.5858 75.4763 31.8213C75.973 32.0257 76.5245 32.1815 77.1136 32.282C77.696 32.379 78.3125 32.4275 78.9462 32.4275C80.6487 32.4275 82.1182 31.9564 83.324 31.0247C84.6017 30.0237 85.2491 28.6106 85.2491 26.8234C85.2491 25.4899 84.8928 24.3781 84.1872 23.5122" fill="black"></path><path d="M100.191 28.6792H94.0422V15.0361C94.0422 14.468 93.5832 14.0039 93.0214 14.0039H91.2915C90.7195 14.0039 90.2708 14.4576 90.2708 15.0361V31.1314C90.2708 31.7029 90.7298 32.167 91.2915 32.167H100.191C100.756 32.167 101.215 31.7029 101.215 31.1314V29.7148C101.215 29.1467 100.756 28.6826 100.191 28.6826" fill="black"></path><path d="M114.773 28.6792H108.713V24.3185H113.098C113.663 24.3185 114.122 23.8544 114.122 23.2863V21.9355C114.122 21.3675 113.663 20.9034 113.098 20.9034H108.713V17.4848H114.468C115.023 17.4848 115.492 17.0103 115.492 16.4492V15.0361C115.492 14.468 115.033 14.0039 114.468 14.0039H105.966C105.391 14.0039 104.942 14.4576 104.942 15.0361V31.1314C104.942 31.7029 105.401 32.167 105.966 32.167H114.773C115.338 32.167 115.797 31.7029 115.797 31.1314V29.7148C115.797 29.1467 115.338 28.6826 114.773 28.6826" fill="black"></path><path d="M133.027 30.5872L129.197 24.3492C129.787 23.9959 130.321 23.5283 130.79 22.9603C131.616 21.9767 132.034 20.8267 132.034 19.5521C132.034 17.8654 131.492 16.5007 130.42 15.4963C129.369 14.5057 127.848 14 125.902 14H121.576C121.014 14 120.558 14.4641 120.558 15.0322V31.1275C120.558 31.699 121.014 32.1631 121.576 32.1631H123.309C123.871 32.1631 124.33 31.699 124.33 31.1275V25.2913C124.83 25.2844 125.179 25.2775 125.433 25.2775L129.228 31.6574C129.41 31.9726 129.745 32.1666 130.105 32.1666H132.157C132.537 32.1666 132.883 31.9587 133.061 31.6193C133.233 31.2833 133.219 30.8954 133.027 30.5872ZM128.211 19.6041C128.211 20.283 127.981 20.7783 127.471 21.2112C126.913 21.6719 126.07 21.9074 124.964 21.9074H124.333V17.4463H125.238C126.406 17.4463 127.245 17.6298 127.666 17.9727C128.029 18.2637 128.211 18.8109 128.211 19.6006" fill="black"></path><path d="M8.08061 3.39432C8.49509 3.39432 8.83763 3.05143 8.83763 2.62887V0.761991C8.83763 0.342896 8.49509 0 8.08061 0H0.753597C0.335693 0 0 0.342896 0 0.761991V45.2345C0 45.6536 0.335693 46.0035 0.753597 46.0035H8.08061C8.49509 46.0035 8.83763 45.6536 8.83763 45.2345V43.3677C8.83763 42.952 8.49509 42.6057 8.08061 42.6057H3.63439V3.39432H8.08061Z" fill="#009983"></path><path d="M149.244 0H141.917C141.499 0 141.156 0.342896 141.156 0.765454V2.62887C141.156 3.05143 141.499 3.39432 141.917 3.39432H146.359V42.6057H141.917C141.499 42.6057 141.156 42.9486 141.156 43.3677V45.2345C141.156 45.6536 141.499 46.0035 141.917 46.0035H149.244C149.655 46.0035 150.001 45.6536 150.001 45.2345V0.765454C150.001 0.342896 149.655 0 149.244 0Z" fill="#009983"></path></svg> 