<?xml version="1.0" encoding="UTF-8"?>
<svg id="Capa_3" data-name="Capa 3" xmlns="http://www.w3.org/2000/svg" viewBox="0 0 1578.57 327.76">
  <defs>
    <style>
      .cls-1 {
        fill: #00bbb4;
      }
    </style>
  </defs>
  <g id="Layer_1" data-name="Layer 1">
    <g>
      <path d="M719.82,126.86h40.92v-2.52l-11.65-9.44v-33.37h36.52v33.37l-12.59,9.44v2.52h41.55v-2.52l-11.65-9.44V45.02l11.65-10.07v-2.2h-41.24v2.2l12.28,10.39v26.76h-36.52v-26.76l11.65-10.39v-2.2h-40.92v2.2l11.65,10.39v69.57l-11.65,9.44v2.52h0ZM830.62,126.86h40.61v-2.52l-11.65-9.44V45.33l11.65-10.39v-2.2h-40.61v2.2l11.96,10.39v69.57l-11.96,9.44v2.52h0ZM886.97,126.86h42.81v-2.52l-13.85-9.44V45.33c0-2.2,4.09-3.46,11.33-3.46,5.35,0,13.85,2.2,14.8,3.78,1.89,1.26,3.15,8.5,3.15,13.54,0,12.91-7.24,20.78-23.29,20.78l-1.89,3.15c1.89,3.46,3.46,5.67,7.87,5.67,18.57,0,34.63-8.18,34.63-28.33s-14.17-27.7-32.42-27.7h-43.13v2.2l12.28,10.39v69.57l-12.28,9.44v2.52h0ZM1016.98,128.44c29.91,0,45.02-23.61,45.02-51,0-29.91-12.59-46.27-43.13-46.27s-45.33,22.98-45.33,51c0,29.59,13.22,46.27,43.44,46.27h0ZM1016.98,119.94c-21.41,0-25.5-23.61-25.5-42.81,0-10.7,4.09-28.96,7.56-31.48,2.2-3.46,11.33-5.67,18.57-5.67,21.72,0,25.81,17.94,25.81,40.61,0,20.15-5.04,39.35-26.44,39.35h0ZM1070.81,126.86h43.13c29.59,0,46.27-20.46,46.27-49.11s-13.85-45.02-44.39-45.02h-45.02v2.2l11.65,10.39v70.2l-11.65,8.81v2.52h0ZM1113.31,119.94h-4.09c-6.3,0-9.44-.31-9.44-4.41V45.02c0-2.83,12.91-3.46,15.42-3.46,6.93,0,15.11,1.89,17.31,4.09,5.04,5.35,8.81,16.68,8.81,33.37,0,19.52-7.24,40.92-28.02,40.92h0ZM1310.05,128.44c29.91,0,45.02-23.61,45.02-51,0-29.91-12.59-46.27-43.44-46.27s-44.7,22.98-44.7,51c0,29.59,13.22,46.27,43.13,46.27h0ZM1310.05,119.94c-21.41,0-25.18-23.61-25.18-42.81,0-10.7,4.09-28.33,7.56-31.48,2.83-2.83,11.33-5.67,18.26-5.67,22.04,0,25.5,17.94,25.5,40.61,0,20.15-4.72,39.35-26.13,39.35h0ZM1533.56,128.44c29.91,0,45.02-23.61,45.02-51,0-29.91-13.54-46.27-43.76-46.27s-45.02,22.98-45.02,51c0,29.59,13.22,46.27,43.76,46.27h0ZM1533.24,119.94c-21.72,0-25.18-23.61-25.18-42.81,0-10.7,4.09-28.33,7.24-31.48,3.15-2.83,11.65-5.67,18.57-5.67,21.72,0,25.5,17.94,25.5,40.61,0,20.15-4.41,39.35-26.13,39.35h0ZM1171.23,126.86h39.66v-2.52l-10.39-9.13v-30.53h7.87c6.61,0,9.76,2.83,12.28,9.13l14.17,33.05h22.35v-2.52l-8.81-8.5-10.7-26.76c-.94-2.83-3.78-5.98-8.18-6.93v-1.26c10.7-2.52,18.89-11.65,18.89-23.61,0-18.26-13.54-24.55-30.85-24.55h-46.27v2.2l11.96,10.7v69.57l-11.96,9.13v2.52h0ZM1208.37,75.55h-7.87v-29.91c0-3.46,13.54-3.46,14.48-3.46,5.35,0,11.33.94,12.91,2.83,1.89,1.89,2.83,6.61,2.83,11.33,0,12.28-10.07,19.2-22.35,19.2h0ZM1413.93,128.12l11.65-1.57,25.18-76.81,1.26.31,1.89,65.16-10.7,9.13v2.2h39.98v-2.2l-11.96-8.81-3.15-70.2,11.96-10.39v-2.2h-34.63l-22.35,68.94-1.26.63-19.83-69.57h-34v1.89l8.18,6.61c2.2,2.83,3.78,4.41,3.78,7.24l-4.41,66.74-12.28,9.13v2.2h33.05v-2.2l-11.02-9.13,3.78-65.16.63-.31,24.24,78.38h0ZM842.27,278.59h39.98v-2.2l-9.76-9.13-28.33-85.31-13.85,5.98-28.65,79.64-8.5,8.81v2.2h30.53v-2.52l-10.39-8.5,5.98-18.89h28.96l5.67,18.89-11.96,8.81.31,2.2h0ZM821.81,239.56l11.96-33.05,1.26.63,10.39,32.42h-23.61ZM887.92,278.59h65.79l2.2-27.07-5.04-.31s-7.24,15.74-7.87,16.37c-.94.94-11.65,2.83-15.11,2.83-5.98-.31-10.7-.63-10.7-3.15v-70.51l11.65-9.44v-2.2h-40.92v2.52l11.96,9.13v70.2l-11.96,9.13v2.52h0ZM961.26,278.59h71.77l2.2-27.07h-4.72s-6.93,15.42-7.87,16.05c-1.57.94-12.91,2.83-19.83,2.83-7.24-.31-12.59-.63-12.59-3.15v-33.05h11.65c4.72,0,5.35.63,8.5,4.72l3.78,5.35h2.83l.31-29.91h-2.52l-8.81,11.02h-15.74v-26.76c0-1.89.63-2.52,2.52-2.83,0,0,7.87-1.57,15.42-1.57s15.42,1.89,18.26,9.13l3.15,6.61h3.15v-24.87h-71.14v2.52l11.96,9.13v70.51l-12.28,9.13v2.2h0ZM719.19,278.59h42.18v-2.2l-13.22-9.44v-70.2c0-2.2,3.78-2.52,11.33-2.52,4.72,0,13.54.94,15.11,2.52,1.57,1.26,2.2,9.76,2.2,15.11,0,12.91-6.93,19.52-22.98,19.52l-1.89,3.46c1.89,4.09,3.46,5.98,7.87,5.98,18.57,0,34.63-8.18,34.63-28.33s-14.48-27.39-32.42-27.39h-42.81v2.2l11.96,9.44v70.2l-11.96,9.44v2.2h0ZM1196.1,280.17l11.65-1.57,24.87-76.49,1.26.31,2.83,65.16-11.02,8.81v2.2h40.29v-2.2l-12.59-8.5-2.83-71.14,11.65-9.13v-2.52h-34.31l-22.35,68.62-.94.31-20.46-68.94h-34v2.2l8.5,6.93c2.83,1.89,3.46,3.46,3.15,6.3l-3.46,67.05-12.91,8.81.31,2.2h33.05v-2.2l-11.02-8.81,3.78-64.53,1.26-.94,23.29,78.07h0ZM1320.13,281.11c29.91,0,45.02-23.92,45.02-51.63,0-29.91-12.91-46.27-43.44-46.27s-45.33,23.92-45.33,51c0,29.91,13.54,46.9,43.76,46.9h0ZM1319.81,272.3c-21.41,0-24.87-23.29-24.87-43.13,0-11.02,4.09-28.33,6.93-31.48,3.15-2.83,11.65-5.98,18.89-5.98,21.72,0,25.5,18.26,25.5,41.24,0,20.15-4.72,39.35-26.44,39.35h0ZM1050.03,278.59h39.35v-2.2l-10.7-8.81v-30.53h8.18c6.61,0,9.76,3.15,11.96,9.13l13.85,32.42h22.98v-2.2l-8.81-8.5-11.02-26.44c-1.26-3.15-3.78-6.61-8.18-7.87v-.63c10.7-2.2,19.2-12.28,19.2-23.29,0-18.57-13.85-24.55-30.53-24.55h-46.27v2.52l11.33,9.13v70.83l-11.33,8.81v2.2h0ZM1087.18,227.6h-8.5v-30.85c0-2.52,13.54-2.52,15.11-2.52,5.04,0,11.02,1.26,12.28,2.52,1.89,2.2,2.83,6.93,2.83,11.65,0,11.96-10.07,19.2-21.72,19.2h0ZM1034.07,0l1.89,12.59-30.85,11.02-3.46-6.93,32.42-16.68h0Z"/>
      <path d="M239.85,278.31V32.74h-103.77v95.48h-32.3V32.74H0v276.73c0,10.01,7.72,18.3,18.01,18.3,2.57,0,5.43-.86,7.72-1.72l78.04-47.74v-64.61h32.3v95.77c0,10.01,8,18.3,18.01,18.3,2.86,0,5.72-.86,8-1.72l77.76-47.74h0Z"/>
      <path class="cls-1" d="M507.14,278.31V32.74h-103.77v276.73c0,10.01,7.72,18.01,18.01,18.01,2.57,0,5.43-.86,7.72-1.72l78.04-47.45h0Z"/>
      <path class="cls-1" d="M535.15,32.74c71.47,0,111.49,18.58,111.49,90.34s-40.02,90.34-111.49,90.34V32.74h0Z"/>
      <polygon points="269.86 33.03 269.86 105.92 373.35 105.92 373.35 33.03 269.86 33.03 269.86 33.03"/>
      <path d="M269.86,309.47c0,10.01,7.43,18.3,17.72,18.3,2.57,0,5.43-.86,7.72-1.72l78.33-47.74v-150.08h-103.77v181.24h0Z"/>
    </g>
  </g>
</svg>