<svg xmlns="http://www.w3.org/2000/svg" viewBox="0 0 220 60" fill="none">
  <!-- Flame icon simplified -->
  <path d="M16 48 C16 48 8 38 12 28 C14 22 20 18 20 18 C20 18 18 26 22 30 C24 32 28 30 28 30 C28 30 24 42 16 48Z" fill="#EC0000"/>
  <path d="M24 48 C24 48 32 38 28 28 C26 22 20 18 20 18 C20 18 22 26 18 30 C16 32 12 30 12 30 C12 30 16 42 24 48Z" fill="#EC0000" opacity="0.7"/>
  <text x="42" y="42" font-family="Arial, sans-serif" font-size="24" font-weight="700" fill="#EC0000" letter-spacing="1">Santander</text>
</svg>